<?xml version="1.0" encoding="UTF-8"?>
<!-- Created with Inkscape (http://www.inkscape.org/) -->
<svg id="svg5" width="100mm" height="100mm" version="1.1" viewBox="0 0 100 100" xmlns="http://www.w3.org/2000/svg">
 <g id="layer-background">
  <rect id="rect2738" width="100" height="100" fill="#f2f2f2" stop-color="#000000" stroke-width=".26458"/>
 </g>
 <g id="layer-lines-1">
 <!-- station B: #a8a8a8 -->
  <g id="layer-1-part-1" fill="none" stroke="#989898" stroke-width="1.2">
   <path id="road12" d="m50.341 77.22 4.5324 1.3331.49799.20762.41165.18017 4.0619 2.4371 4.9413 3.0197.44183.21019.41006.12097 6.1798 1.1587.50097.05681.53558-.01156 3.7155-.33778.61226.03378.64807.06208 2.2987.56922 1.6524.32329 1.2207.1588.59409.0476.43468.08414.48499.16871.57831.22851.64134.27985.73114.32937.43606.14964.2775.02225.19281-.10315.08671-.15086-.02564-.17402-.09801-.19188-.2051-.30652-.47163-.4935-.31547-.38566-.41285-.67936-1.2867-2.7043"/>
   <path id="road11" d="m50.341 77.22-.71284 3.9206-.38817.9274-.5168.78238-2.0288 2.1455-.63367.53111-.88258.60387-2.3627 1.2315-1.0612.51434-1.46.34045-3.2625.22409-.74567.01221-.67373-.1028-2.9093-.72731-1.0377-.30538-.75751-.26488-1.9823-.91517-1.8071-1.0595-.83431-.58192-.74287-.64596-1.1326-1.4654-1.0834-1.4597-.49785-.74931-.54194-.44818-.57034-.19268-1.0002.19666-3.9348 1.3491"/>
   <path id="road10" d="m84.645 82.863 1.7127-2.3456.53743-.5487.73724-.70289.57733-.65302.14063-.22336.08142-.1856.14214-.63826.06338-.7849.02816-1.5966-.10691-2.2273-.08963-1.4725-.07296-.50604-.14901-.98558-.26903-1.3533-.55921-2.0336-.45644-1.4926-.48668-.99709-.65961-.9367-1.3066-1.3313-.61582-.77096-1.2014-1.8716-.31172-.36229-.41238-.3582-2.669-1.9064"/>
   <path id="road09" d="m48.856 46.629-.58359 3.1039-.11108.32908-.38447.98307-.40103.54787-.38449.49688-.09345.34658.02762.24395.13321.19235.40434.32186.6954.358 1.9107.94995 1.9038 1.223.82239.69053.18152.2738.11232.27525.04266.31822.03358 1.0653-.20712 1.5896-.50817 1.1778-1.1183 2.0246-1.2779 2.0445-.51113.74871-.22303.29794-2.3921 2.2231-1.0259 1.141-.5541.96008-.09653.3218.0027 1.0799-.12012.99257-.22547.78513-.01025.24008.07844.16311.18409.05507.167.01782.87528-.22333.97034-.10478.80898.05274.31842.07168.20277.03798.15571.12769.10712.15926 1.5749 2.8872"/>
   <path id="road08" d="m13.662 52.717-2.5757 3.247-.39433.76252-.22028.63797-.21223 1.2348-.11829 2.3264.06817.88691.13137 1.1766.56044 2.8022.31056 1.2187.49805 1.5844 1.1103 3.1459 1.0089 2.769.68793 1.6621.7785 1.7906 1.485 3.1185"/>
   <path id="road07" d="m79.299 56.578-4.3842.64474-.33507-.0064-.25548-.08145-.24376-.12255-.19724-.22038-3.9417-5.8855-.77763-.78821-1.5714-.66995-2.7235-.92487-1.2739-.3728-1.6777-.3832-3.9796-.51489-.70955-.25278-.58602-.30687-.77631-.66848-.91167-.87462-1.4001-1.3415-.20608-.24206-.45974-.31873-.20794-.053-.11891.03152-.23682.15332-.30901.32296-3.1591 2.9263"/>
   <path id="road06" d="m13.662 52.717 2.2795 2.6817.31928.19546.31495.22596 4.7986 1.6416.49236.04436.45838.03658 6.9257-1.0454.46784-.10494.36518-.13999 5.0252-2.3193.40113-.25082.30914-.26606 3.1774-3.2996.393-.33243.3314-.25824 3.7343-2.2406.3707-.1556.33628-.087 4.6942-.41419"/>
   <path id="road05" d="m79.299 56.578 1.3955-2.5326.30468-.37944.42005-.45388.53528-.52766.45766-.45605.17429-.59042.12806-.40589-.03486-.28431-.1987-.30015-.45553-.44539-4.687-4.3431-.3761-.46216-.18777-.40192-.05794-.57806.04389-.71121.60805-5.2447.22998-1.0534 1.1614-3.104.36466-1.4746.17444-1.3475.01726-1.4984.16239-.97325.37459-.82204.51508-.60794.79203-.5193.36229-.44843.07331-.34761-.069454-.42607-.46964-.59504-2.144-.56326-1.8414-1.0692-1.2944-1.7971-.042069-1.9154.03933-1.0462.33356-.88336 2.4486-3.2679"/>
   <path id="road04" d="m49.45 17.671-.74568 4.3352-.24495 1.023-.49438 1.0273-3.1872 3.4972-.6738 1.1063-.25916.64076-.92143 4.0123-.0074.84148.06712.78205.27664 1.4741.49948 1.6387 1.1244 2.6206 1.559 2.7421 2.4134 3.2165"/>
   <path id="road03" d="m14.108 12.177 3.0899 3.3613.47408.64819 3.5837 5.4336.18694.38943.09041.414.39619 5.14-.04669.54654-.13918.32769-.3421.39949-1.5388 2.5167-.36496.3464-.53334.2738-2.3145 1.0315-1.9701.66534-1.3681.45038-1.1732.28868-.94069.34892-.64163.16126-.11165.06164-.03022.0735.01321.07996.14684.12883.48621.21559 1.0204.7757.93208.4065.83159.17926 1.8148.08464 1.1464-.08464.75507.04256.91186.16388 1.6808.55325 1.7274.72498.28341.20996.34012.5733.66584 2.165.52435 2.0512.08335.87527-.26027 1.2124-.76942 2.3032-.53593 1.0507-.82325 1.0651-1.6701 1.8123-.86782.57519-.71577.1361-4.4727.3619"/>
   <path id="road02" d="m49.45 17.671 2.9529-2.2554 1.6506-.56614 2.2007.17052 2.7007.49479 1.2211.58339.89414.42187 1.1508.25993 1.2634-.06772 1.6235-.49505 2.2405-.89808 1.4803-.2351 1.5597.21095 3.4155-.594h4.752"/>
   <path id="road01" d="m14.108 12.177 4.3808-1.782 1.202-.35855 1.2724-.15224 1.1936-.018688 1.0097.083981 1.1406.24407.8999.28648.86986.42236.78328.38168.93493.36201.8836.24001 1.4056-.0045.42841-.05412.4896-.12172 1.3651-.57888 2.1005-1.4471 1.618-.91832 1.8095-.89754 1.1374-.57279.557-.21479.84085-.17647 1.0013-.14315 1.6996-.016827.61384.099188.52569.17408 1.0509.53135 1.2332.62296 1.0612.87158.38861 1.0982-.33607 1.2972-1.5667 1.1388-.96153 1.1012-.21903.72998.281.58044.62485.26601.96361.02477.84128.27488 1.8185 2.1209"/>
  </g>
 </g>
 <g id="layer-lines-2">
  <g id="layer-2-part-1" stroke="#000000" fill="none"></g>
  <g id="layer-2-part-2" stroke="#ffffff" fill="none"></g>
 </g>
 <g id="layer-lines-3">
  <g id="layer-3-part-1" stroke="#000000" fill="none"></g>
  <g id="layer-3-part-2" stroke="#ffffff" fill="none"></g>
  <g id="layer-3-part-3" stroke="#000000" fill="none"></g>
 </g>
 <g id="layer-nodes" fill="#fcfcfc" stroke="#000" stroke-width=".5">
  <circle id="node09" cx="84.645" cy="82.863" r="2.2072" stop-color="#000000"/>
  <circle id="node08" cx="50.341" cy="77.22" r="2.2072" stop-color="#000000"/>
  <circle id="node07" cx="16.78" cy="81.081" r="2.2072" stop-color="#000000"/>
  <circle id="node06" cx="79.299" cy="56.578" r="2.2072" stop-color="#000000"/>
  <circle id="node05" cx="48.856" cy="46.629" r="2.2072" stop-color="#000000"/>
  <circle id="node04" cx="13.662" cy="52.717" r="2.2072" stop-color="#000000"/>
  <circle id="node03" cx="78.557" cy="14.702" r="2.2072" stop-color="#000000"/>
  <circle id="node02" cx="49.45" cy="17.671" r="2.2072" stop-color="#000000"/>
  <circle id="node01" cx="14.108" cy="12.177" r="2.2072" stop-color="#000000"/>
 </g>
</svg>
