<?xml version="1.0" encoding="UTF-8"?>
<!-- Created with Inkscape (http://www.inkscape.org/) -->
<svg id="svg5" width="100mm" height="100mm" version="1.1" viewBox="0 0 100 100" xmlns="http://www.w3.org/2000/svg">
 <g id="layer-background">
  <rect id="rect2738" width="100" height="100" fill="#f2f2f2" stop-color="#000000" stroke-width=".26458"/>
 </g>
 <g id="layer-lines-1">
 <!-- station B: #a8a8a8 -->
  <g id="layer-1-part-1" fill="none" stroke="#989898" stroke-width="1.2">
   <path id="road12" d="m50.159 15.743-4.5888-1.1239-.50699-.18457-.41948-.16111-4.1694-2.2483-5.0746-2.7899-.451-.18972-.41518-.10204-6.2265-.87416-.50305-.033771-.53448.036144-3.6961.50778-.61316-.00569-.65024-.032321-2.3224-.46324-1.6655-.24719-1.2267-.10266-.59565-.020311-.43808-.064082-.49222-.14629-.58818-.20176-.6535-.25015-.74547-.2955-.44246-.12949-.27823-.00945-.18788.11188-.0797.15468.03359.17267.1067.18717.21894.29679.49376.47136.33282.37079.44356.65972.5693 1.9074"/>
   <path id="road11" d="m78.448 46.506-3.9749 1.7934-.2932.23113-.18711.28247-.03102.23877.1057.2384.25889.23282.97626.42452 1.6871 1.2876.19545.23993.11116.28999.0042.31578-.09819.29882-.35979.40818-1.1597.76252-1.0612.51434-1.46.34046-3.2625.22409-.74567.0122-.67373-.10281-2.9093-.72731-1.0377-.30538-.75751-.26488-1.9823-.91517-1.8071-1.0595-.83431-.58192-.74287-.64596-1.1326-1.4654-1.0834-1.4597-.49785-.74931-.54194-.44818-.57034-.19268-1.0002.19666-3.9348 1.3491"/>
   <path id="road10" d="m80.013 44.725 3.467-3.1481.64937-.41016.87932-.51417.71222-.50247.1883-.18496.12196-.16186.28534-.58836.24249-.74919.39522-1.5472.409-2.1921.25199-1.4535.04552-.50924.08202-.9934.04994-1.3789-.07574-2.1077-.10037-1.5576-.24392-1.0824-.42611-1.0634-.96483-1.5965-.42167-.89208-.73798-2.098-.2199-.42436-.31878-.44356-1.6331-1.8399"/>
   <path id="road09" d="m48.016 48.309-.5836 3.1039-.11108.32908-.38447.98307-.40103.54787-.3845.49688-.0934.34658.0276.24395.13321.19235.40435.32186.6954.358 1.9107.94995 1.9038 1.223.82239.69053.18152.2738.11232.27525.0427.31822.0336 1.0653-.20712 1.5896-.50817 1.1778-1.1183 2.0246-1.2779 2.0445-.51114.74871-.22303.29794-2.3921 2.2231-1.0259 1.141-.5541.96008-.0965.3218.003 1.0799-.12013.99257-.22547.78513-.0103.24008.0784.16311.18409.0551.16701.0178.87528-.22333.97033-.10478.80898.0527.31842.0717.20277.038.15571.1277.10712.15926 1.5748 2.8872"/>
   <path id="road08" d="m51.517 17.694-3.1041 2.7462-.52168.68176-.32851.58958-.42502 1.1786-.52354 2.2699-.08807.88516-.07654 1.1814.06147 2.8571.09253 1.2542.21313 1.6471.54272 3.2917.50887 2.9028.38649 1.7568.45318 1.8992.91642 3.3302"/>
   <path id="road07" d="m81.909 15.859-2.8579 1.5643-.31749.10728-.26797.0097-.27084-.0329-.26014-.1407-5.6997-4.2059-.99836-.47882-1.7053-.09913-2.8758.05056-1.325.07994-1.7085.2067-3.9193.86116-.75323.002-.65527-.09063-.95662-.36659-1.1537-.51482-1.7712-.78908-.27579-.15812-.54044-.1445-.2136.02043-.10125.06987-.17102.22437-.1816.40843-1.4585 2.6671"/>
   <path id="road06" d="m48.143 46.148-2.1891-2.58-.25894-.27036-.24698-.29876s-1.7647-2.4615-2.5141-2.9958-1.5043-.57677-1.5043-.57677l-1.065-.22644-6.3324-.67962-.47913-.01773-.3888.04232-5.4503.96228-.4518.14033-.36673.1785-3.9133 2.3811-.46473.22132-.38626.16527-4.182 1.2151-.39812.056-.34735-.0016-3.4897-.79561"/>
   <path id="road05" d="m17.451 78.945 1.3955-2.5326.30468-.37944.42005-.45388.53528-.52766.45766-.45605.17429-.59042.12807-.40589-.0349-.28431-.1987-.30015-.45553-.44539-4.687-4.3431-.37609-.46216-.18777-.40192-.0579-.57806.0439-.71121.60805-5.2447.22997-1.0534 1.1614-3.104.36467-1.4746.17444-1.3475.0173-1.4984.16239-.97325.37459-.82204.51508-.60794.79203-.5193.36229-.44843.0733-.34761-.0695-.42607-.46964-.59504-2.144-.56326-1.8414-1.0692-1.2944-1.7971"/>
   <path id="road04" d="m14.274 12.421-.74568 4.3352-.24495 1.023-.49438 1.0273-3.1872 3.4972-.6738 1.1063-.25916.64076-.92143 4.0123-.0074.84148.06712.78205.27664 1.4741.49948 1.6387 1.1244 2.6206 1.559 2.7421 1.6784 3.6365"/>
   <path id="road03" d="m78.056 45.569 3.0899 3.3613.47408.64819 3.5837 5.4336.18694.38943.09041.414.39619 5.14-.04669.54654-.13918.32769-.3421.39949-1.5388 2.5167-.36496.3464-.53334.2738-2.3145 1.0315-1.9701.66534-1.3681.45038-1.1732.28868-.94069.34892-.64163.16126-.11165.06164-.03022.0735.01321.07996.14684.12883.48621.21559 1.0204.7757.93208.4065.83159.17926 1.8148.08464 1.1464-.08464.75507.04256.91186.16388 1.6808.55325 1.7274.72498.28341.20996.34012.5733.66584 2.165.52435 2.0512.08335.87527-.26027 1.2124-.76942 2.3032-.83293 1.6447"/>
   <path id="road02" d="m50.615 80.196 3.3184-1.6717 1.7267-.25182 2.1314.5737 2.563.98468 1.0925.79872.80093.57963 1.0831.46785 1.2542.1666 1.687-.18695 2.3678-.46919 1.4982.04211 1.494.49517 3.4665.04649 8.1601.95118"/>
   <path id="road01" d="m49.078 80.908-1.6856 2.1629-.6405.56858-.93894.26432-.97724.22932c-.45513.79724-.80022.59753-1.6459.49373l-.92174-.20566-.90384-.34367-.814-.31082-.96331-.2778-.90138-.16082-1.3997.12895-.42193.09184-.4769.1646-1.3085.69748-1.9641 1.6274-1.5303 1.058-1.7229 1.0542-1.0822.67126-.53579.26327-.82192.25024-.98467.23126-1.6915.16727-.62022-.04444-.53904-.12684-1.0938-.43621-1.2835-.51131-1.1342-.77419-.48434-1.0595.21988-1.3219 1.4597-1.273.86023-1.182.15352-.74651-.33129-.55328-.64595-.20963-.96202.06065-.86232-.1993-1.9992-1.9515"/>
  </g>
 </g>
 <g id="layer-lines-2">
  <g id="layer-2-part-1" stroke="#000000" fill="none"></g>
  <g id="layer-2-part-2" stroke="#ffffff" fill="none"></g>
 </g>
 <g id="layer-lines-3">
  <g id="layer-3-part-1" stroke="#000000" fill="none"></g>
  <g id="layer-3-part-2" stroke="#ffffff" fill="none"></g>
  <g id="layer-3-part-3" stroke="#000000" fill="none"></g>
 </g>
 <g id="layer-nodes" fill="#fcfcfc" stroke="#000" stroke-width=".5">
  <circle id="node09" cx="84.645" cy="82.863" r="2.2072" stop-color="#000000"/>
  <circle id="node08" cx="48.976" cy="80.58" r="2.2072" stop-color="#000000"/>
  <circle id="node07" cx="17.621" cy="78.981" r="2.2072" stop-color="#000000"/>
  <circle id="node06" cx="79.194" cy="45.973" r="2.2072" stop-color="#000000"/>
  <circle id="node05" cx="48.856" cy="46.629" r="2.2072" stop-color="#000000"/>
  <circle id="node04" cx="13.452" cy="42.532" r="2.2072" stop-color="#000000"/>
  <circle id="node03" cx="82.127" cy="16.067" r="2.2072" stop-color="#000000"/>
  <circle id="node02" cx="51.866" cy="16.516" r="2.2072" stop-color="#000000"/>
  <circle id="node01" cx="14.108" cy="12.177" r="2.2072" stop-color="#000000"/>
 </g>
</svg>
